<mxfile host="drawio-plugin" modified="2022-07-21T07:36:25.652Z" agent="5.0 (Windows NT 6.2; Win64; x64) AppleWebKit/537.36 (KHTML, like Gecko) Chrome/97.0.4692.45 Safari/537.36" etag="2KFUCismcAvd7ZO2NuPL" version="15.5.4" type="embed"><diagram name="Page-1" id="c4acf3e9-155e-7222-9cf6-157b1a14988f"><mxGraphModel dx="994" dy="816" grid="1" gridSize="10" guides="1" tooltips="1" connect="1" arrows="1" fold="1" page="1" pageScale="1" pageWidth="1169" pageHeight="827" background="none" math="0" shadow="0"><root><mxCell id="0"/><mxCell id="1" parent="0"/><mxCell id="5d2195bd80daf111-12" value="&lt;p style=&quot;margin: 4px 0px 0px; text-align: center; font-size: 14px;&quot;&gt;&lt;font style=&quot;font-size: 14px;&quot;&gt;&amp;lt;&amp;lt;class&amp;gt;&amp;gt;&lt;/font&gt;&lt;/p&gt;&lt;p style=&quot;margin: 4px 0px 0px; text-align: center; font-size: 14px;&quot;&gt;&lt;b style=&quot;&quot;&gt;&lt;font style=&quot;font-size: 14px;&quot;&gt;User&lt;/font&gt;&lt;/b&gt;&lt;/p&gt;&lt;hr size=&quot;1&quot;&gt;&lt;p style=&quot;margin:0px;margin-left:4px;&quot;&gt;- id: UUID&lt;/p&gt;&lt;p style=&quot;margin:0px;margin-left:4px;&quot;&gt;- name: String&lt;br&gt;- surname: String&lt;/p&gt;&lt;p style=&quot;margin:0px;margin-left:4px;&quot;&gt;- birthdate:&amp;nbsp;LocalDate&lt;/p&gt;&lt;p style=&quot;margin:0px;margin-left:4px;&quot;&gt;- timeZone: TimeZone&amp;nbsp;&lt;/p&gt;&lt;p style=&quot;margin: 0px 0px 0px 4px;&quot;&gt;&lt;font color=&quot;#66ff66&quot;&gt;- role: Set&amp;lt;Roles&amp;gt;&lt;/font&gt;&lt;/p&gt;&lt;p style=&quot;margin:0px;margin-left:4px;&quot;&gt;- login: String&lt;/p&gt;&lt;p style=&quot;margin:0px;margin-left:4px;&quot;&gt;- email: String&lt;/p&gt;&lt;p style=&quot;margin:0px;margin-left:4px;&quot;&gt;- avatarPath: String&lt;/p&gt;&lt;p style=&quot;margin:0px;margin-left:4px;&quot;&gt;- hashedPassword: String&lt;/p&gt;&lt;hr size=&quot;1&quot;&gt;&lt;p style=&quot;margin:0px;margin-left:4px;&quot;&gt;Constructors&lt;/p&gt;&lt;p style=&quot;margin:0px;margin-left:4px;&quot;&gt;Getters&lt;/p&gt;&lt;p style=&quot;margin:0px;margin-left:4px;&quot;&gt;Setters&lt;/p&gt;" style="verticalAlign=top;align=left;overflow=fill;fontSize=12;fontFamily=Helvetica;html=1;rounded=0;shadow=0;comic=0;labelBackgroundColor=none;strokeWidth=2;" parent="1" vertex="1"><mxGeometry x="717" y="327" width="165" height="253" as="geometry"/></mxCell><mxCell id="tCqR7feV3Yc1K0IRLcwg-5" value="&lt;pre style=&quot;text-align: center; margin-top: 0px; margin-bottom: calc(var(--s-prose-spacing) + 0.4em); padding: var(--su12); border: 0px; font-variant-numeric: inherit; font-variant-east-asian: inherit; font-stretch: inherit; line-height: var(--lh-md); font-family: var(--ff-mono); vertical-align: baseline; box-sizing: inherit; width: auto; max-height: 600px; overflow: auto; background-color: var(--highlight-bg); border-radius: var(--br-md); overflow-wrap: normal; color: var(--highlight-color); position: relative; font-size: 14px;&quot;&gt;&lt;code style=&quot;margin: 0px; padding: 0px; border: 0px; font-style: inherit; font-variant: inherit; font-weight: inherit; font-stretch: inherit; line-height: inherit; font-family: var(--ff-mono); vertical-align: baseline; box-sizing: inherit; background-color: transparent; color: var(--black-800); border-radius: 0px;&quot;&gt;&lt;font style=&quot;font-size: 14px;&quot;&gt;&amp;lt;&amp;lt;enumeration&amp;gt;&amp;gt;&lt;/font&gt;&lt;/code&gt;&lt;/pre&gt;&lt;pre style=&quot;text-align: center; margin-top: 0px; margin-bottom: calc(var(--s-prose-spacing) + 0.4em); padding: var(--su12); border: 0px; font-variant-numeric: inherit; font-variant-east-asian: inherit; font-stretch: inherit; line-height: var(--lh-md); font-family: var(--ff-mono); vertical-align: baseline; box-sizing: inherit; width: auto; max-height: 600px; overflow: auto; background-color: var(--highlight-bg); border-radius: var(--br-md); overflow-wrap: normal; color: var(--highlight-color); position: relative; font-size: 14px;&quot;&gt;&lt;code style=&quot;margin: 0px; padding: 0px; border: 0px; font-style: inherit; font-variant: inherit; font-stretch: inherit; line-height: inherit; font-family: var(--ff-mono); vertical-align: baseline; box-sizing: inherit; background-color: transparent; color: var(--black-800); border-radius: 0px;&quot;&gt;&lt;b style=&quot;&quot;&gt;&lt;font style=&quot;font-size: 14px;&quot;&gt;Roles&lt;/font&gt;&lt;/b&gt;&lt;/code&gt;&lt;/pre&gt;&lt;hr size=&quot;1&quot;&gt;&lt;p style=&quot;margin:0px;margin-left:4px;&quot;&gt;&lt;/p&gt;&lt;p style=&quot;margin:0px;margin-left:4px;&quot;&gt;Admin&lt;/p&gt;&lt;p style=&quot;margin:0px;margin-left:4px;&quot;&gt;Teacher&lt;/p&gt;&lt;p style=&quot;margin:0px;margin-left:4px;&quot;&gt;Student&lt;/p&gt;" style="verticalAlign=top;align=left;overflow=fill;fontSize=12;fontFamily=Helvetica;html=1;rounded=0;shadow=0;comic=0;labelBackgroundColor=none;strokeWidth=2;strokeColor=#000000;" parent="1" vertex="1"><mxGeometry x="704.98" y="627" width="190" height="123" as="geometry"/></mxCell><mxCell id="tCqR7feV3Yc1K0IRLcwg-9" value="&lt;p style=&quot;margin: 4px 0px 0px; text-align: center; font-size: 14px;&quot;&gt;&lt;font style=&quot;font-size: 14px;&quot;&gt;&amp;lt;&amp;lt;class&amp;gt;&amp;gt;&lt;/font&gt;&lt;/p&gt;&lt;div style=&quot;text-align: center;&quot;&gt;&lt;span style=&quot;background-color: initial; font-size: 14px;&quot;&gt;&lt;b&gt;Location&lt;/b&gt;&lt;/span&gt;&lt;/div&gt;&lt;hr&gt;&amp;nbsp;- id: UUID&lt;br&gt;&lt;span style=&quot;background-color: initial;&quot;&gt;&amp;nbsp;- adress: String&lt;/span&gt;&lt;br&gt;&lt;hr&gt;&lt;p style=&quot;margin:0px;margin-left:4px;&quot;&gt;&lt;/p&gt;&lt;p style=&quot;margin:0px;margin-left:4px;&quot;&gt;Constructors&lt;/p&gt;&lt;p style=&quot;margin:0px;margin-left:4px;&quot;&gt;Getters&lt;/p&gt;&lt;p style=&quot;margin:0px;margin-left:4px;&quot;&gt;Setters&lt;/p&gt;" style="verticalAlign=top;align=left;overflow=fill;fontSize=12;fontFamily=Helvetica;html=1;rounded=0;shadow=0;comic=0;labelBackgroundColor=none;strokeWidth=2;" parent="1" vertex="1"><mxGeometry x="290" y="124" width="140" height="140" as="geometry"/></mxCell><mxCell id="tCqR7feV3Yc1K0IRLcwg-10" value="&lt;p style=&quot;margin: 4px 0px 0px; text-align: center; font-size: 14px;&quot;&gt;&lt;font style=&quot;font-size: 14px;&quot;&gt;&amp;lt;&amp;lt;class&amp;gt;&amp;gt;&lt;/font&gt;&lt;/p&gt;&lt;div style=&quot;text-align: center;&quot;&gt;&lt;span style=&quot;color: rgb(32, 33, 36); font-family: arial, sans-serif; font-size: 16px; text-align: start; background-color: rgb(255, 255, 255);&quot;&gt;&lt;b&gt;Lecture&amp;nbsp;&lt;/b&gt;&lt;/span&gt;&lt;br&gt;&lt;/div&gt;&lt;hr&gt;&amp;nbsp;- id: UUID&lt;br&gt;&lt;span style=&quot;background-color: initial;&quot;&gt;&amp;nbsp;- topic: String&lt;br&gt;&lt;/span&gt;&amp;nbsp;- description: String&lt;br&gt;&amp;nbsp;&lt;font color=&quot;#2d7600&quot;&gt;- lector: User&lt;/font&gt;&lt;br&gt;&amp;nbsp;&lt;font color=&quot;#3700cc&quot;&gt;- subject: Subject&lt;/font&gt;&lt;br&gt;&lt;hr&gt;&lt;p style=&quot;margin:0px;margin-left:4px;&quot;&gt;&lt;/p&gt;&lt;p style=&quot;margin:0px;margin-left:4px;&quot;&gt;Constructors&lt;/p&gt;&lt;p style=&quot;margin:0px;margin-left:4px;&quot;&gt;Getters&lt;/p&gt;&lt;p style=&quot;margin:0px;margin-left:4px;&quot;&gt;Setters&lt;/p&gt;" style="verticalAlign=top;align=left;overflow=fill;fontSize=12;fontFamily=Helvetica;html=1;rounded=0;shadow=0;comic=0;labelBackgroundColor=none;strokeWidth=2;" parent="1" vertex="1"><mxGeometry x="290" y="307" width="140" height="190" as="geometry"/></mxCell><mxCell id="tCqR7feV3Yc1K0IRLcwg-11" value="&lt;p style=&quot;margin: 4px 0px 0px; text-align: center; font-size: 14px;&quot;&gt;&lt;font style=&quot;font-size: 14px;&quot;&gt;&amp;lt;&amp;lt;class&amp;gt;&amp;gt;&lt;/font&gt;&lt;/p&gt;&lt;div style=&quot;text-align: center;&quot;&gt;&lt;span style=&quot;color: rgb(32, 33, 36); font-family: arial, sans-serif; font-size: 16px; text-align: start; background-color: rgb(255, 255, 255);&quot;&gt;&lt;b&gt;Subject&lt;/b&gt;&lt;/span&gt;&lt;br&gt;&lt;/div&gt;&lt;hr&gt;&amp;nbsp;- id: UUID&lt;br&gt;&lt;span style=&quot;background-color: initial;&quot;&gt;&amp;nbsp;- name: String&lt;br&gt;&lt;/span&gt;&amp;nbsp;- description: String&lt;br&gt;&lt;hr&gt;&lt;p style=&quot;margin:0px;margin-left:4px;&quot;&gt;&lt;/p&gt;&lt;p style=&quot;margin:0px;margin-left:4px;&quot;&gt;Constructors&lt;/p&gt;&lt;p style=&quot;margin:0px;margin-left:4px;&quot;&gt;Getters&lt;/p&gt;&lt;p style=&quot;margin:0px;margin-left:4px;&quot;&gt;Setters&lt;/p&gt;" style="verticalAlign=top;align=left;overflow=fill;fontSize=12;fontFamily=Helvetica;html=1;rounded=0;shadow=0;comic=0;labelBackgroundColor=none;strokeWidth=2;" parent="1" vertex="1"><mxGeometry x="290" y="549" width="140" height="160" as="geometry"/></mxCell><mxCell id="tCqR7feV3Yc1K0IRLcwg-12" value="&lt;p style=&quot;margin: 4px 0px 0px; text-align: center; font-size: 14px;&quot;&gt;&lt;font style=&quot;font-size: 14px;&quot;&gt;&amp;lt;&amp;lt;class&amp;gt;&amp;gt;&lt;/font&gt;&lt;/p&gt;&lt;div style=&quot;text-align: center;&quot;&gt;&lt;font face=&quot;arial, sans-serif&quot; color=&quot;#202124&quot;&gt;&lt;span style=&quot;font-size: 16px; background-color: rgb(255, 255, 255);&quot;&gt;&lt;b&gt;Group&lt;/b&gt;&lt;/span&gt;&lt;/font&gt;&lt;/div&gt;&lt;hr&gt;&amp;nbsp;- id: UUID&lt;br&gt;&lt;span style=&quot;background-color: initial;&quot;&gt;&amp;nbsp;- name: String&lt;br&gt;&lt;/span&gt;&amp;nbsp;&lt;font color=&quot;#ff3333&quot;&gt;- students: Set&amp;lt;User&amp;gt;&lt;/font&gt;&lt;br&gt;&lt;hr&gt;&lt;p style=&quot;margin:0px;margin-left:4px;&quot;&gt;&lt;/p&gt;&lt;p style=&quot;margin:0px;margin-left:4px;&quot;&gt;Constructors&lt;/p&gt;&lt;p style=&quot;margin:0px;margin-left:4px;&quot;&gt;Getters&lt;/p&gt;&lt;p style=&quot;margin:0px;margin-left:4px;&quot;&gt;Setters&lt;/p&gt;" style="verticalAlign=top;align=left;overflow=fill;fontSize=12;fontFamily=Helvetica;html=1;rounded=0;shadow=0;comic=0;labelBackgroundColor=none;strokeWidth=2;" parent="1" vertex="1"><mxGeometry x="729.5" y="110" width="140" height="160" as="geometry"/></mxCell><mxCell id="tCqR7feV3Yc1K0IRLcwg-18" value="&lt;p style=&quot;margin: 4px 0px 0px; text-align: center; font-size: 14px;&quot;&gt;&lt;font style=&quot;font-size: 14px;&quot;&gt;&amp;lt;&amp;lt;class&amp;gt;&amp;gt;&lt;/font&gt;&lt;/p&gt;&lt;p style=&quot;margin: 4px 0px 0px; text-align: center; font-size: 14px;&quot;&gt;&lt;b&gt;TimeTableUnit&lt;/b&gt;&lt;/p&gt;&lt;hr size=&quot;1&quot;&gt;&lt;p style=&quot;margin:0px;margin-left:4px;&quot;&gt;- id: UUID&lt;/p&gt;&lt;p style=&quot;margin:0px;margin-left:4px;&quot;&gt;&lt;font color=&quot;#3333ff&quot;&gt;- place: Location&lt;/font&gt;&lt;br&gt;&lt;font color=&quot;#a50040&quot;&gt;- lecture: Lecture&lt;/font&gt;&lt;/p&gt;&lt;p style=&quot;margin:0px;margin-left:4px;&quot;&gt;&lt;font color=&quot;#00ffff&quot;&gt;- group:&amp;nbsp;Group&lt;/font&gt;&lt;/p&gt;&lt;p style=&quot;margin:0px;margin-left:4px;&quot;&gt;&lt;span style=&quot;background-color: initial;&quot;&gt;- begin: Timestamp ( UTC time)&lt;/span&gt;&lt;br&gt;&lt;/p&gt;&lt;p style=&quot;margin:0px;margin-left:4px;&quot;&gt;&lt;span style=&quot;background-color: initial;&quot;&gt;- end: Timestamp (UTC time)&lt;/span&gt;&lt;br&gt;&lt;/p&gt;&lt;hr&gt;&lt;p style=&quot;margin:0px;margin-left:4px;&quot;&gt;&lt;/p&gt;&lt;p style=&quot;margin:0px;margin-left:4px;&quot;&gt;Constructors&lt;/p&gt;&lt;p style=&quot;margin:0px;margin-left:4px;&quot;&gt;Getters&lt;/p&gt;&lt;p style=&quot;margin:0px;margin-left:4px;&quot;&gt;Setters&lt;/p&gt;" style="verticalAlign=top;align=left;overflow=fill;fontSize=12;fontFamily=Helvetica;html=1;rounded=0;shadow=0;comic=0;labelBackgroundColor=none;strokeWidth=2;" parent="1" vertex="1"><mxGeometry x="500" y="207" width="179" height="200" as="geometry"/></mxCell><mxCell id="tCqR7feV3Yc1K0IRLcwg-39" value="" style="rounded=0;orthogonalLoop=1;jettySize=auto;html=1;fontSize=14;startArrow=diamondThin;startFill=0;strokeColor=#66FF66;endSize=12;startSize=12;exitX=0.5;exitY=1;exitDx=0;exitDy=0;endArrow=open;endFill=0;" parent="1" source="5d2195bd80daf111-12" target="tCqR7feV3Yc1K0IRLcwg-5" edge="1"><mxGeometry relative="1" as="geometry"><mxPoint x="897" y="480" as="sourcePoint"/><mxPoint x="799.5" y="350" as="targetPoint"/></mxGeometry></mxCell><mxCell id="tCqR7feV3Yc1K0IRLcwg-41" value="*" style="edgeLabel;html=1;align=center;verticalAlign=middle;resizable=0;points=[];fontSize=14;fontColor=#66FF66;labelBackgroundColor=none;rounded=0;" parent="tCqR7feV3Yc1K0IRLcwg-39" vertex="1" connectable="0"><mxGeometry relative="1" as="geometry"><mxPoint x="-11" y="19" as="offset"/></mxGeometry></mxCell><mxCell id="tCqR7feV3Yc1K0IRLcwg-40" value="1" style="edgeLabel;html=1;align=center;verticalAlign=middle;resizable=0;points=[];fontSize=14;fontColor=#66FF66;container=1;labelBackgroundColor=none;rounded=0;" parent="tCqR7feV3Yc1K0IRLcwg-39" vertex="1" connectable="0"><mxGeometry x="0.7944" y="1" relative="1" as="geometry"><mxPoint x="-12" y="-33" as="offset"/></mxGeometry></mxCell><mxCell id="tCqR7feV3Yc1K0IRLcwg-45" value="" style="rounded=0;orthogonalLoop=1;jettySize=auto;html=1;fontSize=14;startArrow=diamondThin;startFill=0;strokeColor=#00FFFF;endSize=12;startSize=12;endArrow=open;endFill=0;exitX=1.004;exitY=0.386;exitDx=0;exitDy=0;exitPerimeter=0;entryX=0.012;entryY=0.168;entryDx=0;entryDy=0;edgeStyle=orthogonalEdgeStyle;fontColor=#99FFFF;entryPerimeter=0;" parent="1" source="tCqR7feV3Yc1K0IRLcwg-18" target="tCqR7feV3Yc1K0IRLcwg-12" edge="1"><mxGeometry relative="1" as="geometry"><mxPoint x="772.5" y="267" as="sourcePoint"/><mxPoint x="690" y="167" as="targetPoint"/><Array as="points"><mxPoint x="709" y="284"/><mxPoint x="709" y="137"/></Array></mxGeometry></mxCell><mxCell id="tCqR7feV3Yc1K0IRLcwg-46" value="1" style="edgeLabel;html=1;align=center;verticalAlign=middle;resizable=0;points=[];fontSize=14;fontColor=#00FFFF;labelBackgroundColor=none;rounded=0;" parent="tCqR7feV3Yc1K0IRLcwg-45" vertex="1" connectable="0"><mxGeometry x="0.7944" y="1" relative="1" as="geometry"><mxPoint x="-27" y="135" as="offset"/></mxGeometry></mxCell><mxCell id="tCqR7feV3Yc1K0IRLcwg-47" value="1" style="edgeLabel;html=1;align=center;verticalAlign=middle;resizable=0;points=[];fontSize=14;fontColor=#00FFFF;labelBackgroundColor=none;rounded=0;" parent="tCqR7feV3Yc1K0IRLcwg-45" vertex="1" connectable="0"><mxGeometry x="0.7944" y="1" relative="1" as="geometry"><mxPoint x="12" y="-11" as="offset"/></mxGeometry></mxCell><mxCell id="c7f3jUs5hBZ3THX55o8q-1" value="" style="rounded=0;orthogonalLoop=1;jettySize=auto;html=1;fontSize=14;startArrow=diamondThin;startFill=0;strokeColor=#3333FF;endSize=12;startSize=12;endArrow=open;endFill=0;entryX=0.994;entryY=0.171;entryDx=0;entryDy=0;edgeStyle=orthogonalEdgeStyle;fontColor=#99FFFF;entryPerimeter=0;" parent="1" source="tCqR7feV3Yc1K0IRLcwg-18" target="tCqR7feV3Yc1K0IRLcwg-9" edge="1"><mxGeometry relative="1" as="geometry"><mxPoint x="493.0000000000001" y="181.20000000000005" as="sourcePoint"/><mxPoint x="563.84" y="126.99999999999977" as="targetPoint"/></mxGeometry></mxCell><mxCell id="c7f3jUs5hBZ3THX55o8q-2" value="1" style="edgeLabel;html=1;align=center;verticalAlign=middle;resizable=0;points=[];fontSize=14;fontColor=#3333FF;labelBackgroundColor=none;rounded=0;" parent="c7f3jUs5hBZ3THX55o8q-1" vertex="1" connectable="0"><mxGeometry x="0.7944" y="1" relative="1" as="geometry"><mxPoint x="33" y="145" as="offset"/></mxGeometry></mxCell><mxCell id="c7f3jUs5hBZ3THX55o8q-3" value="1" style="edgeLabel;html=1;align=center;verticalAlign=middle;resizable=0;points=[];fontSize=14;fontColor=#3333FF;labelBackgroundColor=none;rounded=0;" parent="c7f3jUs5hBZ3THX55o8q-1" vertex="1" connectable="0"><mxGeometry x="0.7944" y="1" relative="1" as="geometry"><mxPoint x="-11" y="-16" as="offset"/></mxGeometry></mxCell><mxCell id="c7f3jUs5hBZ3THX55o8q-4" value="" style="rounded=0;orthogonalLoop=1;jettySize=auto;html=1;fontSize=14;startArrow=diamondThin;startFill=0;strokeColor=#3700CC;endSize=12;startSize=12;endArrow=open;endFill=0;fillColor=#6a00ff;entryX=0.469;entryY=0.002;entryDx=0;entryDy=0;entryPerimeter=0;exitX=0.467;exitY=0.996;exitDx=0;exitDy=0;exitPerimeter=0;" parent="1" source="tCqR7feV3Yc1K0IRLcwg-10" target="tCqR7feV3Yc1K0IRLcwg-11" edge="1"><mxGeometry relative="1" as="geometry"><mxPoint x="356" y="487" as="sourcePoint"/><mxPoint x="356" y="547" as="targetPoint"/></mxGeometry></mxCell><mxCell id="c7f3jUs5hBZ3THX55o8q-5" value="1" style="edgeLabel;html=1;align=center;verticalAlign=middle;resizable=0;points=[];fontSize=14;fontColor=#3700CC;labelBackgroundColor=none;rounded=0;" parent="c7f3jUs5hBZ3THX55o8q-4" vertex="1" connectable="0"><mxGeometry x="0.7944" y="1" relative="1" as="geometry"><mxPoint x="-12" y="-38" as="offset"/></mxGeometry></mxCell><mxCell id="c7f3jUs5hBZ3THX55o8q-6" value="1" style="edgeLabel;html=1;align=center;verticalAlign=middle;resizable=0;points=[];fontSize=14;fontColor=#3700CC;labelBackgroundColor=none;rounded=0;" parent="c7f3jUs5hBZ3THX55o8q-4" vertex="1" connectable="0"><mxGeometry x="0.7944" y="1" relative="1" as="geometry"><mxPoint x="-14" y="-3" as="offset"/></mxGeometry></mxCell><mxCell id="tCqR7feV3Yc1K0IRLcwg-15" value="" style="edgeStyle=orthogonalEdgeStyle;rounded=0;orthogonalLoop=1;jettySize=auto;html=1;fontSize=14;startArrow=diamondThin;startFill=0;strokeColor=#FF3333;endSize=12;startSize=12;endArrow=open;endFill=0;" parent="1" source="tCqR7feV3Yc1K0IRLcwg-12" target="5d2195bd80daf111-12" edge="1"><mxGeometry relative="1" as="geometry"><mxPoint x="772" y="300" as="sourcePoint"/><Array as="points"/></mxGeometry></mxCell><mxCell id="tCqR7feV3Yc1K0IRLcwg-17" value="1" style="edgeLabel;html=1;align=center;verticalAlign=middle;resizable=0;points=[];fontSize=14;fontColor=#FF3333;labelBackgroundColor=none;rounded=0;" parent="tCqR7feV3Yc1K0IRLcwg-15" vertex="1" connectable="0"><mxGeometry x="0.7944" y="1" relative="1" as="geometry"><mxPoint x="-13" y="-42" as="offset"/></mxGeometry></mxCell><mxCell id="tCqR7feV3Yc1K0IRLcwg-19" value="*" style="edgeLabel;html=1;align=center;verticalAlign=middle;resizable=0;points=[];fontSize=14;fontColor=#FF3333;labelBackgroundColor=none;rounded=0;" parent="tCqR7feV3Yc1K0IRLcwg-15" vertex="1" connectable="0"><mxGeometry x="0.7944" y="1" relative="1" as="geometry"><mxPoint x="-13" y="-2" as="offset"/></mxGeometry></mxCell><mxCell id="c7f3jUs5hBZ3THX55o8q-10" value="" style="rounded=0;orthogonalLoop=1;jettySize=auto;html=1;fontSize=14;startArrow=diamondThin;startFill=0;strokeColor=#A50040;endArrow=open;endFill=0;fontColor=#99FFFF;fillColor=#d80073;exitX=0.007;exitY=0.694;exitDx=0;exitDy=0;exitPerimeter=0;endSize=12;startSize=12;entryX=1.003;entryY=0.198;entryDx=0;entryDy=0;entryPerimeter=0;" parent="1" source="tCqR7feV3Yc1K0IRLcwg-18" target="tCqR7feV3Yc1K0IRLcwg-10" edge="1"><mxGeometry relative="1" as="geometry"><mxPoint x="503" y="317.02857142857147" as="sourcePoint"/><mxPoint x="470" y="347" as="targetPoint"/></mxGeometry></mxCell><mxCell id="c7f3jUs5hBZ3THX55o8q-11" value="1" style="edgeLabel;html=1;align=center;verticalAlign=middle;resizable=0;points=[];fontSize=14;fontColor=#A50040;labelBackgroundColor=none;rounded=0;" parent="c7f3jUs5hBZ3THX55o8q-10" vertex="1" connectable="0"><mxGeometry x="0.7944" y="1" relative="1" as="geometry"><mxPoint x="54" y="-14" as="offset"/></mxGeometry></mxCell><mxCell id="c7f3jUs5hBZ3THX55o8q-12" value="1" style="edgeLabel;html=1;align=center;verticalAlign=middle;resizable=0;points=[];fontSize=14;fontColor=#A50040;labelBackgroundColor=none;rounded=0;" parent="c7f3jUs5hBZ3THX55o8q-10" vertex="1" connectable="0"><mxGeometry x="0.7944" y="1" relative="1" as="geometry"><mxPoint x="-4" y="-13" as="offset"/></mxGeometry></mxCell><mxCell id="c7f3jUs5hBZ3THX55o8q-13" value="" style="rounded=0;orthogonalLoop=1;jettySize=auto;html=1;fontSize=14;startArrow=diamondThin;startFill=0;strokeColor=#2D7600;endArrow=open;endFill=0;fontColor=#99FFFF;fillColor=#60a917;endSize=12;startSize=12;entryX=-0.001;entryY=0.434;entryDx=0;entryDy=0;entryPerimeter=0;exitX=1;exitY=0.672;exitDx=0;exitDy=0;exitPerimeter=0;" parent="1" source="tCqR7feV3Yc1K0IRLcwg-10" target="5d2195bd80daf111-12" edge="1"><mxGeometry relative="1" as="geometry"><mxPoint x="431.53999999999996" y="435.56000000000006" as="sourcePoint"/><mxPoint x="715.6799999999998" y="435.25" as="targetPoint"/></mxGeometry></mxCell><mxCell id="c7f3jUs5hBZ3THX55o8q-14" value="1" style="edgeLabel;html=1;align=center;verticalAlign=middle;resizable=0;points=[];fontSize=14;fontColor=#2D7600;labelBackgroundColor=none;rounded=0;" parent="c7f3jUs5hBZ3THX55o8q-13" vertex="1" connectable="0"><mxGeometry x="0.7944" y="1" relative="1" as="geometry"><mxPoint x="13" y="-14" as="offset"/></mxGeometry></mxCell><mxCell id="c7f3jUs5hBZ3THX55o8q-15" value="1" style="edgeLabel;html=1;align=center;verticalAlign=middle;resizable=0;points=[];fontSize=14;fontColor=#2D7600;labelBackgroundColor=none;rounded=0;" parent="c7f3jUs5hBZ3THX55o8q-13" vertex="1" connectable="0"><mxGeometry x="0.7944" y="1" relative="1" as="geometry"><mxPoint x="-247" y="-13" as="offset"/></mxGeometry></mxCell></root></mxGraphModel></diagram></mxfile>